<svg xmlns="http://www.w3.org/2000/svg" xmlns:xlink="http://www.w3.org/1999/xlink" viewBox="0 0 2400.854 5800.173"><defs><style>.a{fill:none;}.b{fill:#231916;}.c{clip-path:url(#a);}</style><clipPath id="a" transform="translate(0 -0.041)"><rect class="a" width="2400.826" height="5800.186"/></clipPath></defs><title>aflogo_1</title><polygon class="b" points="137.135 4397.605 137.135 4696.024 1160.285 4696.024 1160.285 5731.963 1420.267 5731.963 1420.267 4696.024 2136.471 4696.024 2136.471 5800.173 2400.854 5800.173 2400.854 4397.605 137.135 4397.605"/><rect class="a" x="17.19" y="1902.894" width="2366.034" height="2267.363"/><g class="c"><path class="b" d="M2400.425,4187.481H0V1885.7H2400.425ZM34.38,4153.1H2366.045V1920.077H34.38Z" transform="translate(0 -0.041)"/></g><path class="b" d="M964.181,660.825l1091.36,447.628L964.181,1547.486ZM137.135.041V315.512l567,238.735V1654.133l-567,234.472v336.787L2400.854,1253.4V976.3Z" transform="translate(0 -0.041)"/></svg>