<svg xmlns="http://www.w3.org/2000/svg" viewBox="0 0 765.36 765"><defs><style>.a{fill:#f2f2f2;}.b{fill:#e0ccbf;}.c{fill:#3e3947;}.d{fill:#d1beb2;}.e{fill:#37353b;}.f{fill:#2f2d33;}.g{fill:#f5ddc9;}.h{fill:#e3c3bd;}.i{fill:#d1b9ae;}.j{fill:#6e6a75;}.k{fill:#55525c;}.l{fill:#f5dcc9;}.m{fill:#7e7a87;}.n{fill:#75564f;}.o{fill:#f2cdc2;}</style></defs><title>avatar</title><rect class="a" x="697.68" y="472.5" width="22.5" height="22.5"/><rect class="a" x="652.68" y="382.5" width="22.5" height="22.5"/><rect class="b" x="630.18" y="607.5" width="22.5" height="22.5"/><rect class="b" x="630.18" y="585" width="22.5" height="22.5"/><rect class="b" x="630.18" y="562.5" width="22.5" height="22.5"/><rect class="b" x="630.18" y="540" width="22.5" height="22.5"/><rect class="b" x="607.68" y="630" width="22.5" height="22.5"/><rect class="b" x="607.68" y="607.5" width="22.5" height="22.5"/><rect class="b" x="607.68" y="585" width="22.5" height="22.5"/><rect class="b" x="607.68" y="562.5" width="22.5" height="22.5"/><rect class="b" x="607.68" y="540" width="22.5" height="22.5"/><rect class="b" x="607.68" y="517.5" width="22.5" height="22.5"/><rect class="c" x="607.68" y="270" width="22.5" height="22.5"/><rect class="c" x="607.68" y="247.5" width="22.5" height="22.5"/><rect class="c" x="607.68" y="225" width="22.5" height="22.5"/><rect class="c" x="607.68" y="202.5" width="22.5" height="22.5"/><rect class="c" x="607.68" y="180" width="22.5" height="22.5"/><rect class="c" x="607.68" y="157.5" width="22.5" height="22.5"/><rect class="c" x="607.68" y="135" width="22.5" height="22.5"/><rect class="d" x="585.18" y="652.5" width="22.5" height="22.5"/><rect class="e" x="585.18" y="630" width="22.5" height="22.5"/><rect class="e" x="585.18" y="607.5" width="22.5" height="22.5"/><rect class="e" x="585.18" y="585" width="22.5" height="22.5"/><rect class="e" x="585.18" y="562.5" width="22.5" height="22.5"/><rect class="d" x="585.18" y="540" width="22.5" height="22.5"/><rect class="b" x="585.18" y="517.5" width="22.5" height="22.5"/><rect class="b" x="585.18" y="495" width="22.5" height="22.5"/><rect class="b" x="585.18" y="472.5" width="22.5" height="22.5"/><rect class="f" x="585.18" y="337.5" width="22.5" height="22.5"/><rect class="c" x="585.18" y="315" width="22.5" height="22.5"/><rect class="c" x="585.18" y="292.5" width="22.5" height="22.5"/><rect class="c" x="585.18" y="270" width="22.5" height="22.5"/><rect class="c" x="585.18" y="247.5" width="22.5" height="22.5"/><rect class="c" x="585.18" y="225" width="22.5" height="22.5"/><rect class="c" x="585.18" y="202.5" width="22.5" height="22.5"/><rect class="c" x="585.18" y="180" width="22.5" height="22.5"/><rect class="c" x="585.18" y="157.5" width="22.5" height="22.5"/><rect class="c" x="585.18" y="135" width="22.5" height="22.5"/><rect class="c" x="585.18" y="112.5" width="22.5" height="22.5"/><rect class="c" x="585.18" y="90" width="22.5" height="22.5"/><rect class="c" x="585.18" y="67.5" width="22.5" height="22.5"/><rect class="e" x="562.68" y="675" width="22.5" height="22.5"/><rect class="e" x="562.68" y="652.5" width="22.5" height="22.5"/><rect class="e" x="562.68" y="630" width="22.5" height="22.5"/><rect class="e" x="562.68" y="607.5" width="22.5" height="22.5"/><rect class="e" x="562.68" y="585" width="22.5" height="22.5"/><rect class="e" x="562.68" y="562.5" width="22.5" height="22.5"/><rect class="e" x="562.68" y="540" width="22.5" height="22.5"/><rect class="e" x="562.68" y="517.5" width="22.5" height="22.5"/><rect class="e" x="562.68" y="495" width="22.5" height="22.5"/><rect class="e" x="562.68" y="472.5" width="22.5" height="22.5"/><rect class="b" x="562.68" y="450" width="22.5" height="22.5"/><rect class="g" x="562.68" y="405" width="22.5" height="22.5"/><rect class="f" x="562.68" y="382.5" width="22.5" height="22.5"/><rect class="h" x="562.68" y="360" width="22.5" height="22.5"/><rect class="h" x="562.68" y="337.5" width="22.5" height="22.5"/><rect class="f" x="562.68" y="315" width="22.5" height="22.5"/><rect class="i" x="562.68" y="292.5" width="22.5" height="22.5"/><rect class="c" x="562.68" y="270" width="22.5" height="22.5"/><rect class="c" x="562.68" y="247.5" width="22.5" height="22.5"/><rect class="c" x="562.68" y="225" width="22.5" height="22.5"/><rect class="c" x="562.68" y="202.5" width="22.5" height="22.5"/><rect class="c" x="562.68" y="180" width="22.5" height="22.5"/><rect class="c" x="562.68" y="157.5" width="22.5" height="22.5"/><rect class="c" x="562.68" y="135" width="22.5" height="22.5"/><rect class="c" x="562.68" y="112.5" width="22.5" height="22.5"/><rect class="c" x="562.68" y="90" width="22.5" height="22.5"/><rect class="c" x="562.68" y="67.5" width="22.5" height="22.5"/><rect class="c" x="562.68" y="45" width="22.5" height="22.5"/><rect class="j" x="540.18" y="697.5" width="22.5" height="22.5"/><rect class="j" x="540.18" y="675" width="22.5" height="22.5"/><rect class="e" x="540.18" y="652.5" width="22.5" height="22.5"/><rect class="e" x="540.18" y="630" width="22.5" height="22.5"/><rect class="e" x="540.18" y="607.5" width="22.5" height="22.5"/><rect class="e" x="540.18" y="585" width="22.5" height="22.5"/><rect class="e" x="540.18" y="562.5" width="22.5" height="22.5"/><rect class="e" x="540.18" y="540" width="22.5" height="22.5"/><rect class="e" x="540.18" y="517.5" width="22.5" height="22.5"/><rect class="e" x="540.18" y="495" width="22.5" height="22.5"/><rect class="i" x="540.18" y="472.5" width="22.5" height="22.5"/><rect class="g" x="540.18" y="450" width="22.5" height="22.5"/><rect class="g" x="540.18" y="427.5" width="22.5" height="22.5"/><rect class="f" x="540.18" y="405" width="22.5" height="22.5"/><rect class="g" x="540.18" y="382.5" width="22.5" height="22.5"/><rect class="g" x="540.18" y="360" width="22.5" height="22.5"/><rect class="g" x="540.18" y="337.5" width="22.5" height="22.5"/><rect class="f" x="540.18" y="315" width="22.5" height="22.5"/><rect class="g" x="540.18" y="292.5" width="22.5" height="22.5"/><rect class="g" x="540.18" y="270" width="22.5" height="22.5"/><rect class="h" x="540.18" y="247.5" width="22.5" height="22.5"/><rect class="h" x="540.18" y="225" width="22.5" height="22.5"/><rect class="h" x="540.18" y="202.5" width="22.5" height="22.5"/><rect class="c" x="540.18" y="180" width="22.5" height="22.5"/><rect class="c" x="540.18" y="157.5" width="22.5" height="22.5"/><rect class="c" x="540.18" y="135" width="22.5" height="22.5"/><rect class="c" x="540.18" y="112.5" width="22.5" height="22.5"/><rect class="c" x="540.18" y="90" width="22.5" height="22.5"/><rect class="c" x="540.18" y="67.5" width="22.5" height="22.5"/><rect class="c" x="540.18" y="45" width="22.5" height="22.5"/><rect class="j" x="517.68" y="697.5" width="22.5" height="22.5"/><rect class="j" x="517.68" y="675" width="22.5" height="22.5"/><rect class="e" x="517.68" y="652.5" width="22.5" height="22.5"/><rect class="e" x="517.68" y="630" width="22.5" height="22.5"/><rect class="e" x="517.68" y="607.5" width="22.5" height="22.5"/><rect class="e" x="517.68" y="585" width="22.5" height="22.5"/><rect class="e" x="517.68" y="562.5" width="22.5" height="22.5"/><rect class="e" x="517.68" y="540" width="22.5" height="22.5"/><rect class="e" x="517.68" y="517.5" width="22.5" height="22.5"/><rect class="i" x="517.68" y="495" width="22.5" height="22.5"/><rect class="g" x="517.68" y="472.5" width="22.5" height="22.5"/><rect class="g" x="517.68" y="450" width="22.5" height="22.5"/><rect class="g" x="517.68" y="427.5" width="22.5" height="22.5"/><rect class="k" x="517.68" y="405" width="22.5" height="22.5"/><rect class="g" x="517.68" y="382.5" width="22.5" height="22.5"/><rect class="g" x="517.68" y="360" width="22.5" height="22.5"/><rect class="g" x="517.68" y="337.5" width="22.5" height="22.5"/><rect class="g" x="517.68" y="315" width="22.5" height="22.5"/><rect class="f" x="517.68" y="292.5" width="22.5" height="22.5"/><rect class="g" x="517.68" y="270" width="22.5" height="22.5"/><rect class="g" x="517.68" y="247.5" width="22.5" height="22.5"/><rect class="l" x="517.68" y="225" width="22.5" height="22.5"/><rect class="h" x="517.68" y="202.5" width="22.5" height="22.5"/><rect class="h" x="517.68" y="180" width="22.5" height="22.5"/><rect class="c" x="517.68" y="157.5" width="22.5" height="22.5"/><rect class="c" x="517.68" y="135" width="22.5" height="22.5"/><rect class="c" x="517.68" y="112.5" width="22.5" height="22.5"/><rect class="c" x="517.68" y="90" width="22.5" height="22.5"/><rect class="c" x="517.68" y="67.5" width="22.5" height="22.5"/><rect class="c" x="517.68" y="45" width="22.5" height="22.5"/><rect class="j" x="495.18" y="720" width="22.5" height="22.5"/><rect class="j" x="495.18" y="697.5" width="22.5" height="22.5"/><rect class="e" x="495.18" y="675" width="22.5" height="22.5"/><rect class="e" x="495.18" y="652.5" width="22.5" height="22.5"/><rect class="e" x="495.18" y="630" width="22.5" height="22.5"/><rect class="e" x="495.18" y="607.5" width="22.5" height="22.5"/><rect class="e" x="495.18" y="585" width="22.5" height="22.5"/><rect class="e" x="495.18" y="562.5" width="22.5" height="22.5"/><rect class="e" x="495.18" y="540" width="22.5" height="22.5"/><rect class="e" x="495.18" y="517.5" width="22.5" height="22.5"/><rect class="g" x="495.18" y="495" width="22.5" height="22.5"/><rect class="g" x="495.18" y="472.5" width="22.5" height="22.5"/><rect class="g" x="495.18" y="450" width="22.5" height="22.5"/><rect class="g" x="495.18" y="427.5" width="22.5" height="22.5"/><rect class="k" x="495.18" y="405" width="22.5" height="22.5"/><rect class="g" x="495.18" y="382.5" width="22.5" height="22.5"/><rect class="g" x="495.18" y="360" width="22.5" height="22.5"/><rect class="c" x="495.18" y="337.5" width="22.5" height="22.5"/><rect class="g" x="495.18" y="315" width="22.5" height="22.5"/><rect class="f" x="495.18" y="292.5" width="22.5" height="22.5"/><rect class="g" x="495.18" y="270" width="22.5" height="22.5"/><rect class="g" x="495.18" y="247.5" width="22.5" height="22.5"/><rect class="l" x="495.18" y="225" width="22.5" height="22.5"/><rect class="l" x="495.18" y="202.5" width="22.5" height="22.5"/><rect class="c" x="495.18" y="180" width="22.5" height="22.5"/><rect class="c" x="495.18" y="157.5" width="22.5" height="22.5"/><rect class="c" x="495.18" y="135" width="22.5" height="22.5"/><rect class="c" x="495.18" y="112.5" width="22.5" height="22.5"/><rect class="c" x="495.18" y="90" width="22.5" height="22.5"/><rect class="c" x="495.18" y="67.5" width="22.5" height="22.5"/><rect class="c" x="495.18" y="45" width="22.5" height="22.5"/><rect class="j" x="472.68" y="720" width="22.5" height="22.5"/><rect class="m" x="472.68" y="697.5" width="22.5" height="22.5"/><rect class="e" x="472.68" y="675" width="22.5" height="22.5"/><rect class="e" x="472.68" y="652.5" width="22.5" height="22.5"/><rect class="e" x="472.68" y="630" width="22.5" height="22.5"/><rect class="e" x="472.68" y="607.5" width="22.5" height="22.5"/><rect class="e" x="472.68" y="585" width="22.5" height="22.5"/><rect class="e" x="472.68" y="562.5" width="22.5" height="22.5"/><rect class="e" x="472.68" y="540" width="22.5" height="22.5"/><rect class="i" x="472.68" y="517.5" width="22.5" height="22.5"/><rect class="l" x="472.68" y="495" width="22.5" height="22.5"/><rect class="l" x="472.68" y="472.5" width="22.5" height="22.5"/><rect class="l" x="472.68" y="450" width="22.5" height="22.5"/><rect class="g" x="472.68" y="427.5" width="22.5" height="22.5"/><rect class="k" x="472.68" y="405" width="22.5" height="22.5"/><rect class="g" x="472.68" y="382.5" width="22.5" height="22.5"/><rect class="g" x="472.68" y="360" width="22.5" height="22.5"/><rect class="c" x="472.68" y="337.5" width="22.5" height="22.5"/><rect class="l" x="472.68" y="315" width="22.5" height="22.5"/><rect class="f" x="472.68" y="292.5" width="22.5" height="22.5"/><rect class="g" x="472.68" y="270" width="22.5" height="22.5"/><rect class="g" x="472.68" y="247.5" width="22.5" height="22.5"/><rect class="l" x="472.68" y="225" width="22.5" height="22.5"/><rect class="l" x="472.68" y="202.5" width="22.5" height="22.5"/><rect class="c" x="472.68" y="180" width="22.5" height="22.5"/><rect class="c" x="472.68" y="157.5" width="22.5" height="22.5"/><rect class="c" x="472.68" y="135" width="22.5" height="22.5"/><rect class="c" x="472.68" y="112.5" width="22.5" height="22.5"/><rect class="c" x="472.68" y="90" width="22.5" height="22.5"/><rect class="c" x="472.68" y="67.5" width="22.5" height="22.5"/><rect class="c" x="472.68" y="45" width="22.5" height="22.5"/><rect class="j" x="450.18" y="742.5" width="22.5" height="22.5"/><rect class="j" x="450.18" y="720" width="22.5" height="22.5"/><rect class="m" x="450.18" y="697.5" width="22.5" height="22.5"/><rect class="m" x="450.18" y="675" width="22.5" height="22.5"/><rect class="e" x="450.18" y="652.5" width="22.5" height="22.5"/><rect class="e" x="450.18" y="630" width="22.5" height="22.5"/><rect class="e" x="450.18" y="607.5" width="22.5" height="22.5"/><rect class="e" x="450.18" y="585" width="22.5" height="22.5"/><rect class="e" x="450.18" y="562.5" width="22.5" height="22.5"/><rect class="e" x="450.18" y="540" width="22.5" height="22.5"/><rect class="l" x="450.18" y="517.5" width="22.5" height="22.5"/><rect class="l" x="450.18" y="495" width="22.5" height="22.5"/><rect class="l" x="450.18" y="472.5" width="22.5" height="22.5"/><rect class="l" x="450.18" y="450" width="22.5" height="22.5"/><rect class="l" x="450.18" y="427.5" width="22.5" height="22.5"/><rect class="f" x="450.18" y="405" width="22.5" height="22.5"/><rect class="g" x="450.18" y="382.5" width="22.5" height="22.5"/><rect class="g" x="450.18" y="360" width="22.5" height="22.5"/><rect class="l" x="450.18" y="337.5" width="22.5" height="22.5"/><rect class="f" x="450.18" y="315" width="22.5" height="22.5"/><rect class="l" x="450.18" y="292.5" width="22.5" height="22.5"/><rect class="l" x="450.18" y="270" width="22.5" height="22.5"/><rect class="g" x="450.18" y="247.5" width="22.5" height="22.5"/><rect class="l" x="450.18" y="225" width="22.5" height="22.5"/><rect class="l" x="450.18" y="202.5" width="22.5" height="22.5"/><rect class="c" x="450.18" y="180" width="22.5" height="22.5"/><rect class="c" x="450.18" y="157.5" width="22.5" height="22.5"/><rect class="c" x="450.18" y="135" width="22.5" height="22.5"/><rect class="c" x="450.18" y="112.5" width="22.5" height="22.5"/><rect class="c" x="450.18" y="90" width="22.5" height="22.5"/><rect class="c" x="450.18" y="67.5" width="22.5" height="22.5"/><rect class="c" x="450.18" y="45" width="22.5" height="22.5"/><rect class="j" x="427.68" y="742.5" width="22.5" height="22.5"/><rect class="j" x="427.68" y="720" width="22.5" height="22.5"/><rect class="j" x="427.68" y="697.5" width="22.5" height="22.5"/><rect class="m" x="427.68" y="675" width="22.5" height="22.5"/><rect class="e" x="427.68" y="652.5" width="22.5" height="22.5"/><rect class="e" x="427.68" y="630" width="22.5" height="22.5"/><rect class="e" x="427.68" y="607.5" width="22.5" height="22.5"/><rect class="e" x="427.68" y="585" width="22.5" height="22.5"/><rect class="e" x="427.68" y="562.5" width="22.5" height="22.5"/><rect class="i" x="427.68" y="540" width="22.5" height="22.5"/><rect class="g" x="427.68" y="517.5" width="22.5" height="22.5"/><rect class="l" x="427.68" y="495" width="22.5" height="22.5"/><rect class="l" x="427.68" y="472.5" width="22.5" height="22.5"/><rect class="l" x="427.68" y="450" width="22.5" height="22.5"/><rect class="l" x="427.68" y="427.5" width="22.5" height="22.5"/><rect class="l" x="427.68" y="405" width="22.5" height="22.5"/><rect class="f" x="427.68" y="382.5" width="22.5" height="22.5"/><rect class="l" x="427.68" y="360" width="22.5" height="22.5"/><rect class="h" x="427.68" y="337.5" width="22.5" height="22.5"/><rect class="f" x="427.68" y="315" width="22.5" height="22.5"/><rect class="l" x="427.68" y="292.5" width="22.5" height="22.5"/><rect class="l" x="427.68" y="270" width="22.5" height="22.5"/><rect class="g" x="427.68" y="247.5" width="22.5" height="22.5"/><rect class="l" x="427.68" y="225" width="22.5" height="22.5"/><rect class="l" x="427.68" y="202.5" width="22.5" height="22.5"/><rect class="c" x="427.68" y="180" width="22.5" height="22.5"/><rect class="c" x="427.68" y="157.5" width="22.5" height="22.5"/><rect class="c" x="427.68" y="135" width="22.5" height="22.5"/><rect class="c" x="427.68" y="112.5" width="22.5" height="22.5"/><rect class="c" x="427.68" y="90" width="22.5" height="22.5"/><rect class="c" x="427.68" y="67.5" width="22.5" height="22.5"/><rect class="c" x="427.68" y="45" width="22.5" height="22.5"/><rect class="j" x="405.18" y="742.5" width="22.5" height="22.5"/><rect class="j" x="405.18" y="720" width="22.5" height="22.5"/><rect class="j" x="405.18" y="697.5" width="22.5" height="22.5"/><rect class="m" x="405.18" y="675" width="22.5" height="22.5"/><rect class="e" x="405.18" y="652.5" width="22.5" height="22.5"/><rect class="e" x="405.18" y="630" width="22.5" height="22.5"/><rect class="e" x="405.18" y="607.5" width="22.5" height="22.5"/><rect class="e" x="405.18" y="585" width="22.5" height="22.5"/><rect class="e" x="405.18" y="562.5" width="22.5" height="22.5"/><rect class="n" x="405.18" y="540" width="22.5" height="22.5"/><rect class="n" x="405.18" y="517.5" width="22.5" height="22.5"/><rect class="n" x="405.18" y="495" width="22.5" height="22.5"/><rect class="l" x="405.18" y="472.5" width="22.5" height="22.5"/><rect class="l" x="405.18" y="450" width="22.5" height="22.5"/><rect class="o" x="405.18" y="427.5" width="22.5" height="22.5"/><rect class="o" x="405.18" y="405" width="22.5" height="22.5"/><rect class="g" x="405.18" y="382.5" width="22.5" height="22.5"/><rect class="h" x="405.18" y="360" width="22.5" height="22.5"/><rect class="f" x="405.18" y="337.5" width="22.5" height="22.5"/><rect class="l" x="405.18" y="315" width="22.5" height="22.5"/><rect class="l" x="405.18" y="292.5" width="22.5" height="22.5"/><rect class="l" x="405.18" y="270" width="22.5" height="22.5"/><rect class="g" x="405.18" y="247.5" width="22.5" height="22.5"/><rect class="l" x="405.18" y="225" width="22.5" height="22.5"/><rect class="l" x="405.18" y="202.5" width="22.5" height="22.5"/><rect class="h" x="405.18" y="180" width="22.5" height="22.5"/><rect class="c" x="405.18" y="157.5" width="22.5" height="22.5"/><rect class="c" x="405.18" y="135" width="22.5" height="22.5"/><rect class="c" x="405.18" y="112.5" width="22.5" height="22.5"/><rect class="c" x="405.18" y="90" width="22.5" height="22.5"/><rect class="c" x="405.18" y="67.5" width="22.5" height="22.5"/><rect class="c" x="405.18" y="45" width="22.5" height="22.5"/><rect class="j" x="382.68" y="742.5" width="22.5" height="22.5"/><rect class="j" x="382.68" y="720" width="22.5" height="22.5"/><rect class="j" x="382.68" y="697.5" width="22.5" height="22.5"/><rect class="m" x="382.68" y="675" width="22.5" height="22.5"/><rect class="m" x="382.68" y="652.5" width="22.5" height="22.5"/><rect class="e" x="382.68" y="630" width="22.5" height="22.5"/><rect class="e" x="382.68" y="607.5" width="22.5" height="22.5"/><rect class="e" x="382.68" y="585" width="22.5" height="22.5"/><rect class="e" x="382.68" y="562.5" width="22.5" height="22.5"/><rect class="n" x="382.68" y="540" width="22.5" height="22.5"/><rect class="n" x="382.68" y="517.5" width="22.5" height="22.5"/><rect class="n" x="382.68" y="495" width="22.5" height="22.5"/><rect class="l" x="382.68" y="472.5" width="22.5" height="22.5"/><rect class="l" x="382.68" y="450" width="22.5" height="22.5"/><rect class="o" x="382.68" y="427.5" width="22.5" height="22.5"/><rect class="l" x="382.68" y="405" width="22.5" height="22.5"/><rect class="o" x="382.68" y="382.5" width="22.5" height="22.5"/><rect class="h" x="382.68" y="360" width="22.5" height="22.5"/><rect class="f" x="382.68" y="337.5" width="22.5" height="22.5"/><rect class="l" x="382.68" y="315" width="22.5" height="22.5"/><rect class="l" x="382.68" y="292.5" width="22.5" height="22.5"/><rect class="l" x="382.68" y="270" width="22.5" height="22.5"/><rect class="g" x="382.68" y="247.5" width="22.5" height="22.5"/><rect class="g" x="382.68" y="225" width="22.5" height="22.5"/><rect class="l" x="382.68" y="202.5" width="22.5" height="22.5"/><rect class="l" x="382.68" y="180" width="22.5" height="22.5"/><rect class="c" x="382.68" y="157.5" width="22.5" height="22.5"/><rect class="c" x="382.68" y="135" width="22.5" height="22.5"/><rect class="c" x="382.68" y="112.5" width="22.5" height="22.5"/><rect class="c" x="382.68" y="90" width="22.5" height="22.5"/><rect class="c" x="382.68" y="67.5" width="22.5" height="22.5"/><rect class="c" x="382.68" y="45" width="22.5" height="22.5"/><rect class="j" x="360.18" y="742.5" width="22.5" height="22.5"/><rect class="j" x="360.18" y="720" width="22.5" height="22.5"/><rect class="j" x="360.18" y="697.5" width="22.5" height="22.5"/><rect class="j" x="360.18" y="675" width="22.5" height="22.5"/><rect class="m" x="360.18" y="652.5" width="22.5" height="22.5"/><rect class="m" x="360.18" y="630" width="22.5" height="22.5"/><rect class="e" x="360.18" y="607.5" width="22.5" height="22.5"/><rect class="e" x="360.18" y="585" width="22.5" height="22.5"/><rect class="e" x="360.18" y="562.5" width="22.5" height="22.5"/><rect class="i" x="360.18" y="540" width="22.5" height="22.5"/><rect class="g" x="360.18" y="517.5" width="22.5" height="22.5"/><rect class="g" x="360.18" y="495" width="22.5" height="22.5"/><rect class="g" x="360.18" y="472.5" width="22.5" height="22.5"/><rect class="g" x="360.18" y="450" width="22.5" height="22.5"/><rect class="l" x="360.18" y="427.5" width="22.5" height="22.5"/><rect class="l" x="360.18" y="405" width="22.5" height="22.5"/><rect class="f" x="360.18" y="382.5" width="22.5" height="22.5"/><rect class="l" x="360.18" y="360" width="22.5" height="22.5"/><rect class="h" x="360.18" y="337.5" width="22.5" height="22.5"/><rect class="f" x="360.18" y="315" width="22.5" height="22.5"/><rect class="l" x="360.18" y="292.5" width="22.5" height="22.5"/><rect class="l" x="360.18" y="270" width="22.5" height="22.5"/><rect class="g" x="360.18" y="247.5" width="22.5" height="22.5"/><rect class="g" x="360.18" y="225" width="22.5" height="22.5"/><rect class="g" x="360.18" y="202.5" width="22.5" height="22.5"/><rect class="l" x="360.18" y="180" width="22.5" height="22.5"/><rect class="h" x="360.18" y="157.5" width="22.5" height="22.5"/><rect class="c" x="360.18" y="135" width="22.5" height="22.5"/><rect class="c" x="360.18" y="112.5" width="22.5" height="22.5"/><rect class="c" x="360.18" y="90" width="22.5" height="22.5"/><rect class="c" x="360.18" y="67.5" width="22.5" height="22.5"/><rect class="c" x="360.18" y="45" width="22.5" height="22.5"/><rect class="j" x="337.68" y="742.5" width="22.5" height="22.5"/><rect class="j" x="337.68" y="720" width="22.5" height="22.5"/><rect class="j" x="337.68" y="697.5" width="22.5" height="22.5"/><rect class="j" x="337.68" y="675" width="22.5" height="22.5"/><rect class="j" x="337.68" y="652.5" width="22.5" height="22.5"/><rect class="m" x="337.68" y="630" width="22.5" height="22.5"/><rect class="e" x="337.68" y="607.5" width="22.5" height="22.5"/><rect class="e" x="337.68" y="585" width="22.5" height="22.5"/><rect class="e" x="337.68" y="562.5" width="22.5" height="22.5"/><rect class="i" x="337.68" y="540" width="22.5" height="22.5"/><rect class="l" x="337.68" y="517.5" width="22.5" height="22.5"/><rect class="g" x="337.68" y="495" width="22.5" height="22.5"/><rect class="g" x="337.68" y="472.5" width="22.5" height="22.5"/><rect class="l" x="337.68" y="450" width="22.5" height="22.5"/><rect class="g" x="337.68" y="427.5" width="22.5" height="22.5"/><rect class="f" x="337.68" y="405" width="22.5" height="22.5"/><rect class="o" x="337.68" y="382.5" width="22.5" height="22.5"/><rect class="l" x="337.68" y="360" width="22.5" height="22.5"/><rect class="l" x="337.68" y="337.5" width="22.5" height="22.5"/><rect class="f" x="337.68" y="315" width="22.5" height="22.5"/><rect class="l" x="337.68" y="292.5" width="22.5" height="22.5"/><rect class="l" x="337.68" y="270" width="22.5" height="22.5"/><rect class="l" x="337.68" y="247.5" width="22.5" height="22.5"/><rect class="l" x="337.68" y="225" width="22.5" height="22.5"/><rect class="g" x="337.68" y="202.5" width="22.5" height="22.5"/><rect class="l" x="337.68" y="180" width="22.5" height="22.5"/><rect class="l" x="337.68" y="157.5" width="22.5" height="22.5"/><rect class="c" x="337.68" y="135" width="22.5" height="22.5"/><rect class="c" x="337.68" y="112.5" width="22.5" height="22.5"/><rect class="c" x="337.68" y="90" width="22.5" height="22.5"/><rect class="c" x="337.68" y="67.5" width="22.5" height="22.5"/><rect class="c" x="337.68" y="45" width="22.5" height="22.5"/><rect class="j" x="315.18" y="720" width="22.5" height="22.5"/><rect class="j" x="315.18" y="697.5" width="22.5" height="22.5"/><rect class="j" x="315.18" y="675" width="22.5" height="22.5"/><rect class="j" x="315.18" y="652.5" width="22.5" height="22.5"/><rect class="m" x="315.18" y="630" width="22.5" height="22.5"/><rect class="m" x="315.18" y="607.5" width="22.5" height="22.5"/><rect class="e" x="315.18" y="585" width="22.5" height="22.5"/><rect class="e" x="315.18" y="562.5" width="22.5" height="22.5"/><rect class="e" x="315.18" y="540" width="22.5" height="22.5"/><rect class="l" x="315.18" y="517.5" width="22.5" height="22.5"/><rect class="l" x="315.18" y="495" width="22.5" height="22.5"/><rect class="l" x="315.18" y="472.5" width="22.5" height="22.5"/><rect class="l" x="315.18" y="450" width="22.5" height="22.5"/><rect class="l" x="315.18" y="427.5" width="22.5" height="22.5"/><rect class="k" x="315.18" y="405" width="22.5" height="22.5"/><rect class="g" x="315.18" y="382.5" width="22.5" height="22.5"/><rect class="g" x="315.18" y="360" width="22.5" height="22.5"/><rect class="c" x="315.18" y="337.5" width="22.5" height="22.5"/><rect class="l" x="315.18" y="315" width="22.5" height="22.5"/><rect class="f" x="315.18" y="292.5" width="22.5" height="22.5"/><rect class="l" x="315.18" y="270" width="22.5" height="22.5"/><rect class="g" x="315.18" y="247.5" width="22.5" height="22.5"/><rect class="l" x="315.18" y="225" width="22.5" height="22.5"/><rect class="o" x="315.18" y="202.5" width="22.5" height="22.5"/><rect class="l" x="315.18" y="180" width="22.5" height="22.5"/><rect class="l" x="315.18" y="157.5" width="22.5" height="22.5"/><rect class="l" x="315.18" y="135" width="22.5" height="22.5"/><rect class="c" x="315.18" y="112.5" width="22.5" height="22.5"/><rect class="c" x="315.18" y="90" width="22.5" height="22.5"/><rect class="c" x="315.18" y="67.5" width="22.5" height="22.5"/><rect class="c" x="315.18" y="45" width="22.5" height="22.5"/><rect class="j" x="292.68" y="720" width="22.5" height="22.5"/><rect class="j" x="292.68" y="697.5" width="22.5" height="22.5"/><rect class="j" x="292.68" y="675" width="22.5" height="22.5"/><rect class="j" x="292.68" y="652.5" width="22.5" height="22.5"/><rect class="m" x="292.68" y="630" width="22.5" height="22.5"/><rect class="m" x="292.68" y="607.5" width="22.5" height="22.5"/><rect class="m" x="292.68" y="585" width="22.5" height="22.5"/><rect class="e" x="292.68" y="562.5" width="22.5" height="22.5"/><rect class="e" x="292.68" y="540" width="22.5" height="22.5"/><rect class="l" x="292.68" y="517.5" width="22.5" height="22.5"/><rect class="l" x="292.68" y="495" width="22.5" height="22.5"/><rect class="l" x="292.68" y="472.5" width="22.5" height="22.5"/><rect class="l" x="292.68" y="450" width="22.5" height="22.5"/><rect class="g" x="292.68" y="427.5" width="22.5" height="22.5"/><rect class="k" x="292.68" y="405" width="22.5" height="22.5"/><rect class="g" x="292.68" y="382.5" width="22.5" height="22.5"/><rect class="g" x="292.68" y="360" width="22.5" height="22.5"/><rect class="c" x="292.68" y="337.5" width="22.5" height="22.5"/><rect class="g" x="292.68" y="315" width="22.5" height="22.5"/><rect class="f" x="292.68" y="292.5" width="22.5" height="22.5"/><rect class="g" x="292.68" y="270" width="22.5" height="22.5"/><rect class="g" x="292.68" y="247.5" width="22.5" height="22.5"/><rect class="l" x="292.68" y="225" width="22.5" height="22.5"/><rect class="l" x="292.68" y="202.5" width="22.5" height="22.5"/><rect class="l" x="292.68" y="180" width="22.5" height="22.5"/><rect class="l" x="292.68" y="157.5" width="22.5" height="22.5"/><rect class="h" x="292.68" y="135" width="22.5" height="22.5"/><rect class="c" x="292.68" y="112.5" width="22.5" height="22.5"/><rect class="c" x="292.68" y="90" width="22.5" height="22.5"/><rect class="c" x="292.68" y="67.5" width="22.5" height="22.5"/><rect class="c" x="292.68" y="45" width="22.5" height="22.5"/><rect class="j" x="270.18" y="697.5" width="22.5" height="22.5"/><rect class="j" x="270.18" y="675" width="22.5" height="22.5"/><rect class="j" x="270.18" y="652.5" width="22.5" height="22.5"/><rect class="j" x="270.18" y="630" width="22.5" height="22.5"/><rect class="m" x="270.18" y="607.5" width="22.5" height="22.5"/><rect class="m" x="270.18" y="585" width="22.5" height="22.5"/><rect class="m" x="270.18" y="562.5" width="22.5" height="22.5"/><rect class="e" x="270.18" y="540" width="22.5" height="22.5"/><rect class="e" x="270.18" y="517.5" width="22.5" height="22.5"/><rect class="g" x="270.18" y="495" width="22.5" height="22.5"/><rect class="g" x="270.18" y="472.5" width="22.5" height="22.5"/><rect class="l" x="270.18" y="450" width="22.5" height="22.5"/><rect class="g" x="270.18" y="427.5" width="22.5" height="22.5"/><rect class="k" x="270.18" y="405" width="22.5" height="22.5"/><rect class="g" x="270.18" y="382.5" width="22.5" height="22.5"/><rect class="g" x="270.18" y="360" width="22.5" height="22.5"/><rect class="g" x="270.18" y="337.5" width="22.5" height="22.5"/><rect class="g" x="270.18" y="315" width="22.5" height="22.5"/><rect class="f" x="270.18" y="292.5" width="22.5" height="22.5"/><rect class="g" x="270.18" y="270" width="22.5" height="22.5"/><rect class="l" x="270.18" y="247.5" width="22.5" height="22.5"/><rect class="l" x="270.18" y="225" width="22.5" height="22.5"/><rect class="l" x="270.18" y="202.5" width="22.5" height="22.5"/><rect class="o" x="270.18" y="180" width="22.5" height="22.5"/><rect class="g" x="270.18" y="157.5" width="22.5" height="22.5"/><rect class="h" x="270.18" y="135" width="22.5" height="22.5"/><rect class="c" x="270.18" y="112.5" width="22.5" height="22.5"/><rect class="c" x="270.18" y="90" width="22.5" height="22.5"/><rect class="c" x="270.18" y="67.5" width="22.5" height="22.5"/><rect class="c" x="270.18" y="45" width="22.5" height="22.5"/><rect class="j" x="247.68" y="697.5" width="22.5" height="22.5"/><rect class="j" x="247.68" y="675" width="22.5" height="22.5"/><rect class="j" x="247.68" y="652.5" width="22.5" height="22.5"/><rect class="j" x="247.68" y="630" width="22.5" height="22.5"/><rect class="j" x="247.68" y="607.5" width="22.5" height="22.5"/><rect class="m" x="247.68" y="585" width="22.5" height="22.5"/><rect class="m" x="247.68" y="562.5" width="22.5" height="22.5"/><rect class="m" x="247.68" y="540" width="22.5" height="22.5"/><rect class="m" x="247.68" y="517.5" width="22.5" height="22.5"/><rect class="m" x="247.68" y="495" width="22.5" height="22.5"/><rect class="g" x="247.68" y="472.5" width="22.5" height="22.5"/><rect class="g" x="247.68" y="450" width="22.5" height="22.5"/><rect class="g" x="247.68" y="427.5" width="22.5" height="22.5"/><rect class="f" x="247.68" y="405" width="22.5" height="22.5"/><rect class="g" x="247.68" y="382.5" width="22.5" height="22.5"/><rect class="g" x="247.68" y="360" width="22.5" height="22.5"/><rect class="g" x="247.68" y="337.5" width="22.5" height="22.5"/><rect class="f" x="247.68" y="315" width="22.5" height="22.5"/><rect class="h" x="247.68" y="292.5" width="22.5" height="22.5"/><rect class="l" x="247.68" y="270" width="22.5" height="22.5"/><rect class="l" x="247.68" y="247.5" width="22.5" height="22.5"/><rect class="g" x="247.68" y="225" width="22.5" height="22.5"/><rect class="g" x="247.68" y="202.5" width="22.5" height="22.5"/><rect class="g" x="247.68" y="180" width="22.5" height="22.5"/><rect class="h" x="247.68" y="157.5" width="22.5" height="22.5"/><rect class="c" x="247.68" y="135" width="22.5" height="22.5"/><rect class="c" x="247.68" y="112.5" width="22.5" height="22.5"/><rect class="c" x="247.68" y="90" width="22.5" height="22.5"/><rect class="c" x="247.68" y="67.5" width="22.5" height="22.5"/><rect class="c" x="247.68" y="45" width="22.5" height="22.5"/><rect class="j" x="225.18" y="675" width="22.5" height="22.5"/><rect class="j" x="225.18" y="652.5" width="22.5" height="22.5"/><rect class="j" x="225.18" y="630" width="22.5" height="22.5"/><rect class="j" x="225.18" y="607.5" width="22.5" height="22.5"/><rect class="m" x="225.18" y="585" width="22.5" height="22.5"/><rect class="m" x="225.18" y="562.5" width="22.5" height="22.5"/><rect class="m" x="225.18" y="540" width="22.5" height="22.5"/><rect class="m" x="225.18" y="517.5" width="22.5" height="22.5"/><rect class="m" x="225.18" y="495" width="22.5" height="22.5"/><rect class="m" x="225.18" y="472.5" width="22.5" height="22.5"/><rect class="m" x="225.18" y="450" width="22.5" height="22.5"/><rect class="g" x="225.18" y="405" width="22.5" height="22.5"/><rect class="f" x="225.18" y="382.5" width="22.5" height="22.5"/><rect class="h" x="225.18" y="360" width="22.5" height="22.5"/><rect class="h" x="225.18" y="337.5" width="22.5" height="22.5"/><rect class="f" x="225.18" y="315" width="22.5" height="22.5"/><rect class="c" x="225.18" y="292.5" width="22.5" height="22.5"/><rect class="c" x="225.18" y="270" width="22.5" height="22.5"/><rect class="c" x="225.18" y="247.5" width="22.5" height="22.5"/><rect class="l" x="225.18" y="225" width="22.5" height="22.5"/><rect class="h" x="225.18" y="202.5" width="22.5" height="22.5"/><rect class="h" x="225.18" y="180" width="22.5" height="22.5"/><rect class="c" x="225.18" y="157.5" width="22.5" height="22.5"/><rect class="c" x="225.18" y="135" width="22.5" height="22.5"/><rect class="c" x="225.18" y="112.5" width="22.5" height="22.5"/><rect class="c" x="225.18" y="90" width="22.5" height="22.5"/><rect class="c" x="225.18" y="67.5" width="22.5" height="22.5"/><rect class="e" x="202.68" y="675" width="22.5" height="22.5"/><rect class="j" x="202.68" y="652.5" width="22.5" height="22.5"/><rect class="j" x="202.68" y="630" width="22.5" height="22.5"/><rect class="m" x="202.68" y="607.5" width="22.5" height="22.5"/><rect class="m" x="202.68" y="585" width="22.5" height="22.5"/><rect class="m" x="202.68" y="562.5" width="22.5" height="22.5"/><rect class="m" x="202.68" y="540" width="22.5" height="22.5"/><rect class="m" x="202.68" y="517.5" width="22.5" height="22.5"/><rect class="m" x="202.68" y="495" width="22.5" height="22.5"/><rect class="m" x="202.68" y="472.5" width="22.5" height="22.5"/><rect class="f" x="202.68" y="337.5" width="22.5" height="22.5"/><rect class="f" x="202.68" y="315" width="22.5" height="22.5"/><rect class="c" x="202.68" y="292.5" width="22.5" height="22.5"/><rect class="c" x="202.68" y="270" width="22.5" height="22.5"/><rect class="c" x="202.68" y="247.5" width="22.5" height="22.5"/><rect class="c" x="202.68" y="225" width="22.5" height="22.5"/><rect class="c" x="202.68" y="202.5" width="22.5" height="22.5"/><rect class="c" x="202.68" y="180" width="22.5" height="22.5"/><rect class="c" x="202.68" y="157.5" width="22.5" height="22.5"/><rect class="c" x="202.68" y="135" width="22.5" height="22.5"/><rect class="c" x="202.68" y="112.5" width="22.5" height="22.5"/><rect class="c" x="202.68" y="90" width="22.5" height="22.5"/><rect class="c" x="202.68" y="67.5" width="22.5" height="22.5"/><rect class="e" x="180.18" y="652.5" width="22.5" height="22.5"/><rect class="j" x="180.18" y="630" width="22.5" height="22.5"/><rect class="m" x="180.18" y="607.5" width="22.5" height="22.5"/><rect class="m" x="180.18" y="585" width="22.5" height="22.5"/><rect class="m" x="180.18" y="562.5" width="22.5" height="22.5"/><rect class="m" x="180.18" y="540" width="22.5" height="22.5"/><rect class="c" x="180.18" y="270" width="22.5" height="22.5"/><rect class="c" x="180.18" y="247.5" width="22.5" height="22.5"/><rect class="c" x="180.18" y="225" width="22.5" height="22.5"/><rect class="c" x="180.18" y="202.5" width="22.5" height="22.5"/><rect class="c" x="180.18" y="180" width="22.5" height="22.5"/><rect class="c" x="180.18" y="157.5" width="22.5" height="22.5"/><rect class="c" x="180.18" y="135" width="22.5" height="22.5"/><rect class="c" x="180.18" y="112.5" width="22.5" height="22.5"/><rect class="m" x="157.68" y="607.5" width="22.5" height="22.5"/><rect class="m" x="157.68" y="585" width="22.5" height="22.5"/><rect class="m" x="157.68" y="562.5" width="22.5" height="22.5"/><rect class="a" x="157.68" y="427.5" width="22.5" height="22.5"/><rect class="a" x="90.18" y="607.5" width="22.5" height="22.5"/><rect class="a" x="90.18" y="450" width="22.5" height="22.5"/><rect class="a" x="90.18" y="292.5" width="22.5" height="22.5"/><rect class="c" x="540.18" y="22.5" width="22.5" height="22.5"/><rect class="c" x="517.68" y="22.5" width="22.5" height="22.5"/><rect class="c" x="495.18" y="22.5" width="22.5" height="22.5"/><rect class="c" x="495.18" width="22.5" height="22.5"/><rect class="c" x="472.68" y="22.5" width="22.5" height="22.5"/><rect class="c" x="472.68" width="22.5" height="22.5"/><rect class="c" x="450.18" y="22.5" width="22.5" height="22.5"/><rect class="c" x="450.18" width="22.5" height="22.5"/><rect class="c" x="427.68" y="22.5" width="22.5" height="22.5"/><rect class="c" x="427.68" width="22.5" height="22.5"/><rect class="c" x="405.18" y="22.5" width="22.5" height="22.5"/><rect class="c" x="405.18" width="22.5" height="22.5"/><rect class="c" x="382.68" y="22.5" width="22.5" height="22.5"/><rect class="c" x="382.68" width="22.5" height="22.5"/><rect class="c" x="360.18" y="22.5" width="22.5" height="22.5"/><rect class="c" x="337.68" y="22.5" width="22.5" height="22.5"/><rect class="c" x="315.18" y="22.5" width="22.5" height="22.5"/><rect class="e" x="562.68" y="585" width="45" height="45"/><rect class="e" x="562.68" y="540" width="45" height="45"/><rect class="e" x="562.68" y="495" width="45" height="45"/><rect class="l" x="562.68" y="360" width="45" height="45"/><rect class="l" x="562.68" y="315" width="45" height="45"/><rect class="c" x="562.68" y="270" width="45" height="45"/><rect class="c" x="562.68" y="225" width="45" height="45"/><rect class="c" x="562.68" y="180" width="45" height="45"/><rect class="c" x="562.68" y="135" width="45" height="45"/><rect class="e" x="517.68" y="630" width="45" height="45"/><rect class="e" x="517.68" y="585" width="45" height="45"/><rect class="e" x="517.68" y="540" width="45" height="45"/><rect class="l" x="517.68" y="450" width="45" height="45"/><rect class="l" x="517.68" y="405" width="45" height="45"/><rect class="l" x="517.68" y="360" width="45" height="45"/><rect class="c" x="517.68" y="315" width="45" height="45"/><rect class="l" x="517.68" y="270" width="45" height="45"/><rect class="l" x="517.68" y="225" width="45" height="45"/><rect class="c" x="517.68" y="180" width="45" height="45"/><rect class="c" x="517.68" y="135" width="45" height="45"/><rect class="e" x="472.68" y="630" width="45" height="45"/><rect class="e" x="472.68" y="585" width="45" height="45"/><rect class="l" x="472.68" y="495" width="45" height="45"/><rect class="l" x="472.68" y="450" width="45" height="45"/><rect class="l" x="472.68" y="405" width="45" height="45"/><rect class="l" x="472.68" y="360" width="45" height="45"/><rect class="c" x="472.68" y="315" width="45" height="45"/><rect class="l" x="472.68" y="270" width="45" height="45"/><rect class="l" x="472.68" y="225" width="45" height="45"/><rect class="l" x="472.68" y="180" width="45" height="45"/><rect class="c" x="472.68" y="135" width="45" height="45"/><rect class="c" x="472.68" y="90" width="45" height="45"/><rect class="e" x="427.68" y="630" width="45" height="45"/><rect class="e" x="427.68" y="585" width="45" height="45"/><rect class="l" x="427.68" y="450" width="45" height="45"/><rect class="l" x="427.68" y="405" width="45" height="45"/><rect class="l" x="427.68" y="360" width="45" height="45"/><rect class="l" x="427.68" y="315" width="45" height="45"/><rect class="l" x="427.68" y="270" width="45" height="45"/><rect class="l" x="427.68" y="225" width="45" height="45"/><rect class="l" x="427.68" y="180" width="45" height="45"/><rect class="c" x="427.68" y="90" width="45" height="45"/><rect class="j" x="382.68" y="675" width="45" height="45"/><rect class="e" x="382.68" y="630" width="45" height="45"/><rect class="e" x="382.68" y="585" width="45" height="45"/><rect class="l" x="382.68" y="450" width="45" height="45"/><rect class="l" x="382.68" y="360" width="45" height="45"/><rect class="l" x="382.68" y="315" width="45" height="45"/><rect class="l" x="382.68" y="270" width="45" height="45"/><rect class="l" x="382.68" y="225" width="45" height="45"/><rect class="l" x="382.68" y="180" width="45" height="45"/><rect class="c" x="382.68" y="135" width="45" height="45"/><rect class="c" x="382.68" y="90" width="45" height="45"/><rect class="j" x="337.68" y="720" width="45" height="45"/><rect class="j" x="337.68" y="675" width="45" height="45"/><rect class="e" x="337.68" y="585" width="45" height="45"/><rect class="l" x="337.68" y="450" width="45" height="45"/><rect class="l" x="337.68" y="405" width="45" height="45"/><rect class="l" x="337.68" y="360" width="45" height="45"/><rect class="l" x="337.68" y="315" width="45" height="45"/><rect class="l" x="337.68" y="270" width="45" height="45"/><rect class="l" x="337.68" y="225" width="45" height="45"/><rect class="l" x="337.68" y="180" width="45" height="45"/><rect class="l" x="337.68" y="135" width="45" height="45"/><rect class="c" x="337.68" y="90" width="45" height="45"/><rect class="j" x="292.68" y="675" width="45" height="45"/><rect class="m" x="292.68" y="585" width="45" height="45"/><rect class="e" x="292.68" y="540" width="45" height="45"/><rect class="l" x="292.68" y="450" width="45" height="45"/><rect class="l" x="292.68" y="405" width="45" height="45"/><rect class="l" x="292.68" y="360" width="45" height="45"/><rect class="c" x="292.68" y="315" width="45" height="45"/><rect class="l" x="292.68" y="270" width="45" height="45"/><rect class="l" x="292.68" y="225" width="45" height="45"/><rect class="l" x="292.68" y="180" width="45" height="45"/><rect class="l" x="292.68" y="135" width="45" height="45"/><rect class="c" x="292.68" y="90" width="45" height="45"/><rect class="j" x="247.68" y="675" width="45" height="45"/><rect class="m" x="247.68" y="540" width="45" height="45"/><rect class="l" x="247.68" y="450" width="45" height="45"/><rect class="l" x="247.68" y="405" width="45" height="45"/><rect class="l" x="247.68" y="360" width="45" height="45"/><rect class="c" x="247.68" y="315" width="45" height="45"/><rect class="l" x="247.68" y="270" width="45" height="45"/><rect class="l" x="247.68" y="225" width="45" height="45"/><rect class="l" x="247.68" y="180" width="45" height="45"/><rect class="l" x="247.68" y="135" width="45" height="45"/><rect class="c" x="247.68" y="90" width="45" height="45"/><rect class="m" x="202.68" y="540" width="45" height="45"/><rect class="m" x="202.68" y="495" width="45" height="45"/><rect class="l" x="202.68" y="360" width="45" height="45"/><rect class="l" x="202.68" y="315" width="45" height="45"/><rect class="c" x="202.68" y="270" width="45" height="45"/><rect class="c" x="202.68" y="225" width="45" height="45"/><rect class="c" x="202.68" y="180" width="45" height="45"/><rect class="c" x="202.68" y="135" width="45" height="45"/></svg>